<?xml version="1.0" encoding="UTF-8"?>
<svg version="1.1" xmlns="http://www.w3.org/2000/svg" width="1415" height="1245">
<path d="M0 0 C5.23260086 2.69066556 10.0991366 5.69457573 14.875 9.125 C15.5865625 9.63160156 16.298125 10.13820312 17.03125 10.66015625 C27.19032457 18.07097371 27.19032457 18.07097371 28.875 23.125 C29.865 23.455 30.855 23.785 31.875 24.125 C33.61931637 26.08772991 35.22339743 28.04215169 36.8125 30.125 C37.28469971 30.73641846 37.75689941 31.34783691 38.2434082 31.9777832 C42.10555706 37.02381001 45.85991981 42.14853566 49.5625 47.3125 C50.09157959 48.04275391 50.62065918 48.77300781 51.16577148 49.52539062 C51.89389038 50.5550293 51.89389038 50.5550293 52.63671875 51.60546875 C53.06944092 52.21285889 53.50216309 52.82024902 53.94799805 53.44604492 C54.875 55.125 54.875 55.125 54.875 58.125 C55.535 58.125 56.195 58.125 56.875 58.125 C56.875 59.115 56.875 60.105 56.875 61.125 C57.535 61.125 58.195 61.125 58.875 61.125 C61.875 65.50961538 61.875 65.50961538 61.875 68.125 C62.535 68.125 63.195 68.125 63.875 68.125 C63.978125 68.764375 64.08125 69.40375 64.1875 70.0625 C64.5278125 71.0834375 64.5278125 71.0834375 64.875 72.125 C65.865 72.455 66.855 72.785 67.875 73.125 C68.88851664 74.78348177 69.88620795 76.45165961 70.875 78.125 C72.49474559 79.83730248 74.1708946 81.49663262 75.875 83.125 C77.92155321 85.19958818 79.96515515 87.27704502 82.0078125 89.35546875 C83.95443317 91.30053358 83.95443317 91.30053358 86.875 93.125 C86.875 93.785 86.875 94.445 86.875 95.125 C87.865 95.125 88.855 95.125 89.875 95.125 C90.205 95.785 90.535 96.445 90.875 97.125 C91.865 97.455 92.855 97.785 93.875 98.125 C94.89696992 99.10253644 95.89479625 100.1055881 96.875 101.125 C97.535 101.62 98.195 102.115 98.875 102.625 C100.875 104.125 100.875 104.125 102.4375 105.75 C103.94134101 107.38446476 103.94134101 107.38446476 106.875 108.125 C107.205 108.785 107.535 109.445 107.875 110.125 C108.865 110.455 109.855 110.785 110.875 111.125 C111.205 111.785 111.535 112.445 111.875 113.125 C112.865 113.455 113.855 113.785 114.875 114.125 C116.56316933 115.76988294 118.22853315 117.43837542 119.875 119.125 C120.638125 119.681875 121.40125 120.23875 122.1875 120.8125 C122.744375 121.245625 123.30125 121.67875 123.875 122.125 C123.875 122.785 123.875 123.445 123.875 124.125 C124.535 124.125 125.195 124.125 125.875 124.125 C125.875 124.785 125.875 125.445 125.875 126.125 C127.195 126.785 128.515 127.445 129.875 128.125 C129.875 128.785 129.875 129.445 129.875 130.125 C131.195 130.785 132.515 131.445 133.875 132.125 C133.875 132.785 133.875 133.445 133.875 134.125 C134.865 134.455 135.855 134.785 136.875 135.125 C136.875 135.785 136.875 136.445 136.875 137.125 C137.535 137.125 138.195 137.125 138.875 137.125 C140.2290932 139.11100337 141.55957624 141.11317543 142.875 143.125 C144.20707051 144.45959496 145.54048537 145.79284901 146.875 147.125 C155.19445063 157.69116387 162.37261855 168.85765099 167.875 181.125 C168.31972656 182.00542969 168.76445313 182.88585937 169.22265625 183.79296875 C175.77700844 197.04198037 178.56732388 211.37835283 179.69873047 226.00927734 C179.8616422 227.9646694 180.08631728 229.91465163 180.31640625 231.86328125 C183.28233894 261.42894716 174.44790586 293.57841731 163.68359375 320.9453125 C162.05878897 325.32522104 160.68283626 329.79896174 159.25390625 334.24609375 C158.3220993 337.00243997 157.22177375 339.61395354 156 342.25390625 C153.29600057 348.21287279 151.33958485 354.41042957 149.3125 360.625 C148.92642578 361.79675781 148.54035156 362.96851563 148.14257812 364.17578125 C147.39119892 366.45679955 146.64217053 368.73859386 145.89575195 371.02124023 C145.01185453 373.70887189 144.10704383 376.38814263 143.1953125 379.06640625 C139.55980146 389.9766886 138.32439181 401.19439763 137.14306641 412.56494141 C134.14677305 441.17981586 128.15836835 463.36179543 106.875 484.125 C106.215 484.125 105.555 484.125 104.875 484.125 C104.875 484.785 104.875 485.445 104.875 486.125 C103.555 486.455 102.235 486.785 100.875 487.125 C100.875 487.785 100.875 488.445 100.875 489.125 C99.885 489.125 98.895 489.125 97.875 489.125 C97.875 489.785 97.875 490.445 97.875 491.125 C68.98622019 504.85976061 36.85413739 505.12887447 5.4375 505.25 C4.45040039 505.25475342 3.46330078 505.25950684 2.44628906 505.2644043 C-3.48157174 505.25083595 -9.30965223 504.8936485 -15.2121582 504.36083984 C-28.23135071 503.30673374 -40.48246834 503.79715941 -53.125 507.125 C-54.99716791 507.5138924 -56.87202146 507.89021311 -58.75 508.25 C-64.28233908 509.32625709 -69.68340635 510.81510567 -75.1171875 512.3046875 C-76.72650568 512.74369792 -78.3358827 513.1824927 -79.9453125 513.62109375 C-82.45756681 514.30585582 -84.96951671 514.9916291 -87.48046875 515.68115234 C-100.86016047 519.35312259 -114.2025955 522.66787839 -127.9375 524.75 C-128.70513672 524.87117187 -129.47277344 524.99234375 -130.26367188 525.1171875 C-134.88506834 525.83356235 -139.50769133 526.41667671 -144.15795898 526.91064453 C-145.66288338 527.07464151 -147.16453474 527.26893558 -148.6640625 527.4765625 C-164.25223592 529.51995602 -182.94322781 527.21223373 -196.125 518.125 C-196.81980469 517.6609375 -197.51460937 517.196875 -198.23046875 516.71875 C-202.83087787 513.47343325 -206.9391717 509.8072022 -210.125 505.125 C-210.125 504.465 -210.125 503.805 -210.125 503.125 C-210.785 503.125 -211.445 503.125 -212.125 503.125 C-212.455 501.805 -212.785 500.485 -213.125 499.125 C-213.785 499.125 -214.445 499.125 -215.125 499.125 C-217.13548951 495.69353286 -219.13155245 492.25389088 -221.125 488.8125 C-221.69734375 487.83603516 -222.2696875 486.85957031 -222.859375 485.85351562 C-223.40078125 484.91572266 -223.9421875 483.97792969 -224.5 483.01171875 C-225.00273438 482.14764404 -225.50546875 481.28356934 -226.0234375 480.39331055 C-227.125 478.125 -227.125 478.125 -227.125 475.125 C-227.785 475.125 -228.445 475.125 -229.125 475.125 C-229.34414063 474.53074219 -229.56328125 473.93648437 -229.7890625 473.32421875 C-231.61229517 468.55861465 -233.62337949 464.07585273 -236.125 459.625 C-238.01396197 456.26058017 -239.6482418 452.98766351 -241 449.375 C-243.21220822 443.56216836 -246.19683503 438.21333054 -249.1640625 432.76171875 C-251.23353504 428.95575797 -253.14996258 425.08365222 -255.01953125 421.17578125 C-256.0944679 419.04172609 -256.0944679 419.04172609 -257.76171875 417.04296875 C-259.125 415.125 -259.125 415.125 -259.125 412.125 C-259.785 412.125 -260.445 412.125 -261.125 412.125 C-264.125 407.74038462 -264.125 407.74038462 -264.125 405.125 C-264.785 405.125 -265.445 405.125 -266.125 405.125 C-269.125 400.74038462 -269.125 400.74038462 -269.125 398.125 C-269.785 398.125 -270.445 398.125 -271.125 398.125 C-272.67578125 396.33203125 -272.67578125 396.33203125 -274.4375 393.9375 C-277.12332136 390.37683641 -279.92437098 387.23912553 -283.125 384.125 C-284.45833333 382.45833333 -285.79166667 380.79166667 -287.125 379.125 C-289.37585503 376.81331106 -291.67304604 374.55906411 -294 372.32421875 C-294.639375 371.70160156 -295.27875 371.07898438 -295.9375 370.4375 C-296.54207031 369.85613281 -297.14664063 369.27476562 -297.76953125 368.67578125 C-299.125 367.125 -299.125 367.125 -299.125 365.125 C-300.115 364.795 -301.105 364.465 -302.125 364.125 C-304.3125 362.1875 -304.3125 362.1875 -306.125 360.125 C-306.125 359.465 -306.125 358.805 -306.125 358.125 C-306.785 358.125 -307.445 358.125 -308.125 358.125 C-308.125 357.465 -308.125 356.805 -308.125 356.125 C-309.115 355.795 -310.105 355.465 -311.125 355.125 C-312.31123502 353.6751572 -313.49467507 352.22275282 -314.65234375 350.75 C-316.2681984 348.96698798 -317.94950314 347.72442817 -319.9375 346.375 C-320.989375 345.6325 -322.04125 344.89 -323.125 344.125 C-323.125 343.465 -323.125 342.805 -323.125 342.125 C-323.99318359 341.72474609 -323.99318359 341.72474609 -324.87890625 341.31640625 C-327.18968321 340.09068978 -329.03353212 338.70981941 -331.0625 337.0625 C-334.95314211 333.98753328 -338.93185446 331.08275674 -343 328.25 C-343.55937256 327.85675537 -344.11874512 327.46351074 -344.69506836 327.05834961 C-347.16882669 325.34776805 -349.25279663 324.08240112 -352.125 323.125 C-352.125 322.465 -352.125 321.805 -352.125 321.125 C-352.80820312 320.88394531 -353.49140625 320.64289063 -354.1953125 320.39453125 C-357.70354119 318.87429882 -360.81502343 316.90348583 -364 314.8125 C-364.61915283 314.41095703 -365.23830566 314.00941406 -365.8762207 313.59570312 C-369.07604302 311.50939369 -372.22680442 309.37815245 -375.3125 307.125 C-378.00885086 305.00145358 -378.00885086 305.00145358 -381.125 304.125 C-381.455 303.465 -381.785 302.805 -382.125 302.125 C-383.78435137 301.18582397 -385.44531181 300.24935 -387.11523438 299.32910156 C-390.6287984 297.22403624 -393.71924583 294.59922839 -396.875 292 C-398.18145579 290.93387071 -399.48871666 289.86872704 -400.796875 288.8046875 C-401.64910645 288.10448486 -401.64910645 288.10448486 -402.51855469 287.39013672 C-403.99716775 286.22567275 -405.55900422 285.16899719 -407.125 284.125 C-407.125 283.465 -407.125 282.805 -407.125 282.125 C-408.053125 281.75375 -408.053125 281.75375 -409 281.375 C-411.51210296 279.89729238 -411.88607344 278.68544823 -413.125 276.125 C-414.115 275.795 -415.105 275.465 -416.125 275.125 C-417.73046875 273.34765625 -417.73046875 273.34765625 -419.3125 271.1875 C-420.10720703 270.12208984 -420.10720703 270.12208984 -420.91796875 269.03515625 C-422.125 267.125 -422.125 267.125 -422.125 265.125 C-422.785 265.125 -423.445 265.125 -424.125 265.125 C-426.125 262.125 -426.125 262.125 -426.125 259.125 C-426.785 259.125 -427.445 259.125 -428.125 259.125 C-432.55768488 249.40842625 -436.03776918 239.72440015 -438.875 229.4375 C-439.06988007 228.73513214 -439.26476013 228.03276428 -439.46554565 227.30911255 C-442.50698046 216.25488664 -444.85491104 205.61810358 -445.125 194.125 C-445.15916016 192.96081543 -445.19332031 191.79663086 -445.22851562 190.59716797 C-445.61228285 175.51925463 -445.63700435 160.87862557 -442.125 146.125 C-441.87363281 144.8565625 -441.62226562 143.588125 -441.36328125 142.28125 C-440.26848305 136.7667109 -439.13411598 131.40686146 -436.98046875 126.203125 C-436.33200991 124.62787339 -435.74018866 123.02915866 -435.17578125 121.421875 C-430.31071081 107.8338186 -423.63441688 94.63599737 -414.71875 83.25390625 C-413.23306324 81.26934918 -412.21926752 79.33691683 -411.125 77.125 C-409.98757636 75.98757636 -408.84606484 74.85380714 -407.6796875 73.74609375 C-404.93296703 70.88205104 -402.59488205 67.6773255 -400.1875 64.52734375 C-398.0236262 62.00692256 -395.82874073 60.05052588 -393.125 58.125 C-392.465 58.125 -391.805 58.125 -391.125 58.125 C-391.125 57.465 -391.125 56.805 -391.125 56.125 C-388.00994633 53.27695093 -385.11171063 51.49187222 -381.125 50.125 C-381.125 49.465 -381.125 48.805 -381.125 48.125 C-359.47309205 30.82217939 -326.73351249 22.10265554 -299.55859375 20.37109375 C-296.80489349 20.17372957 -294.07327947 19.92199898 -291.328125 19.63671875 C-274.86501709 17.96493761 -258.62469264 18.11991089 -242.125 19.125 C-241.36864258 19.16915039 -240.61228516 19.21330078 -239.83300781 19.25878906 C-234.78688277 19.55589517 -229.74203326 19.85911239 -224.71240234 20.37011719 C-207.17860948 22.12381303 -189.40346736 22.85461254 -172.75 16.5 C-169.05495218 15.09843014 -166.0238255 14.53112766 -162.125 14.125 C-162.125 13.465 -162.125 12.805 -162.125 12.125 C-161.4959375 11.94324219 -160.866875 11.76148438 -160.21875 11.57421875 C-156.20052254 10.39416701 -152.21619568 9.20885463 -148.3125 7.6875 C-143.70948319 5.90779107 -138.99561851 4.52012962 -134.2734375 3.09375 C-131.76227893 2.32108583 -129.28941347 1.49808827 -126.8125 0.625 C-120.74182434 -1.42067395 -114.49943819 -2.85289169 -108.27636719 -4.35009766 C-106.16131706 -4.86613916 -104.05331168 -5.40517114 -101.9453125 -5.94921875 C-92.91309393 -8.2351636 -84.03458237 -9.62116011 -74.7578125 -10.48046875 C-48.50148184 -13.33196272 -24.2563883 -11.80374565 0 0 Z " fill="#2E073F" transform="translate(1062.125,130.875)"/>
<path d="M0 0 C1.20619995 0.2952356 1.20619995 0.2952356 2.43676758 0.59643555 C7.3228059 1.87284016 11.81688221 3.57407621 16.38793945 5.72021484 C18.98521232 6.90285316 21.64969527 7.7864447 24.375 8.625 C24.375 9.285 24.375 9.945 24.375 10.625 C25.695 10.625 27.015 10.625 28.375 10.625 C28.375 11.285 28.375 11.945 28.375 12.625 C29.695 12.625 31.015 12.625 32.375 12.625 C32.375 13.285 32.375 13.945 32.375 14.625 C32.89835937 14.70621094 33.42171875 14.78742187 33.9609375 14.87109375 C37.32168319 15.92064702 40.07861269 17.77365125 43 19.6875 C43.62100586 20.09162109 44.24201172 20.49574219 44.88183594 20.91210938 C53.25152812 26.43429141 60.72776638 32.83678101 68.12109375 39.59375 C69.93834347 41.23147938 71.77666927 42.78774505 73.6875 44.3125 C76.63353365 46.84745918 78.92692923 49.61198982 81.375 52.625 C83.0374703 54.2958525 84.70467971 55.96199498 86.375 57.625 C92.61453256 64.22377838 98.56150315 70.96428684 104.2578125 78.0390625 C106.25870462 80.48295656 108.32257273 82.84215264 110.4375 85.1875 C122.375 98.49408954 122.375 98.49408954 122.375 101.625 C123.365 101.955 124.355 102.285 125.375 102.625 C126.5859375 104.078125 126.5859375 104.078125 127.75 105.875 C130.59422726 110.05165804 134.02468496 113.34767496 137.6875 116.8125 C139.375 118.625 139.375 118.625 139.375 120.625 C139.95765625 120.893125 140.5403125 121.16125 141.140625 121.4375 C143.40286601 122.63980991 145.18076318 123.96325913 147.125 125.625 C147.73859375 126.140625 148.3521875 126.65625 148.984375 127.1875 C150.375 128.625 150.375 128.625 150.375 130.625 C151.1484375 130.99625 151.1484375 130.99625 151.9375 131.375 C155.14684151 133.02081616 158.25085664 134.8226096 161.375 136.625 C161.375 137.285 161.375 137.945 161.375 138.625 C162.1484375 138.99625 162.1484375 138.99625 162.9375 139.375 C166.14684151 141.02081616 169.25085664 142.8226096 172.375 144.625 C172.375 145.285 172.375 145.945 172.375 146.625 C173.1484375 146.9653125 173.1484375 146.9653125 173.9375 147.3125 C177.27047005 149.10717618 180.52203671 151.12465015 183.375 153.625 C183.375 154.285 183.375 154.945 183.375 155.625 C183.93445312 155.8415625 184.49390625 156.058125 185.0703125 156.28125 C197.71962164 163.65644042 206.10540614 183.11559118 210.1953125 196.26171875 C214.41429658 215.18772481 211.03428131 235.10606455 202.51171875 252.3125 C200.86517408 255.66217163 199.63369081 259.11391511 198.375 262.625 C197.715 262.625 197.055 262.625 196.375 262.625 C196.27960937 263.30304688 196.18421875 263.98109375 196.0859375 264.6796875 C195.21021377 268.30768583 193.6871048 271.44687398 192 274.75 C191.6498584 275.44085693 191.2997168 276.13171387 190.93896484 276.84350586 C183.15344912 291.99100795 174.19654269 306.30521459 164.5234375 320.3046875 C161.5693267 324.62671167 159.25001252 328.72913398 157.375 333.625 C156.715 333.625 156.055 333.625 155.375 333.625 C155.045 336.265 154.715 338.905 154.375 341.625 C153.715 341.625 153.055 341.625 152.375 341.625 C152.271875 342.718125 152.16875 343.81125 152.0625 344.9375 C151.24058538 351.47808818 149.49799408 357.82412064 147.046875 363.9375 C144.43525499 370.80048163 142.82594552 378.02170179 141 385.125 C137.00481744 400.65876491 132.77191992 415.87420769 126.375 430.625 C125.68126893 432.35167623 124.99349154 434.0807598 124.3125 435.8125 C122.46091239 440.47547778 120.44923745 445.05726433 118.375 449.625 C117.715 449.625 117.055 449.625 116.375 449.625 C116.28089844 450.16640625 116.18679688 450.7078125 116.08984375 451.265625 C115.16360747 454.32271088 113.6504644 456.68269005 111.9375 459.375 C111.32003906 460.35984375 110.70257812 461.3446875 110.06640625 462.359375 C109.50824219 463.10703125 108.95007812 463.8546875 108.375 464.625 C107.715 464.625 107.055 464.625 106.375 464.625 C106.148125 465.16125 105.92125 465.6975 105.6875 466.25 C102.35843944 472.27401435 98.50085494 475.63221591 92.375 478.625 C91.61703125 479.0375 90.8590625 479.45 90.078125 479.875 C69.12030052 490.54443792 41.23469115 488.82810217 18.59521484 485.89477539 C-13.03995469 482.05082748 -43.68006017 482.39218248 -74.67578125 489.75390625 C-75.49700974 489.94846909 -76.31823822 490.14303192 -77.16435242 490.3434906 C-78.88283149 490.75075312 -80.60124003 491.15831338 -82.31958008 491.56616211 C-84.94791815 492.18997265 -87.57647935 492.81283591 -90.20507812 493.43554688 C-91.8828255 493.83327849 -93.56056033 494.23106307 -95.23828125 494.62890625 C-96.02060623 494.81433487 -96.80293121 494.99976349 -97.60896301 495.19081116 C-103.98185779 496.65913983 -103.98185779 496.65913983 -110.25 498.5 C-112.82769296 499.35923099 -115.38961456 500.13042697 -118 500.875 C-128.17378643 503.9117211 -138.25992207 507.60799397 -147.625 512.625 C-149.53946108 513.58773187 -151.45635944 514.54562467 -153.375 515.5 C-154.39851563 516.01175781 -155.42203125 516.52351563 -156.4765625 517.05078125 C-176.375 527 -176.375 527 -178.8125 528.21484375 C-180.98344914 529.30333353 -183.14902671 530.40073275 -185.3125 531.50390625 C-225.91222886 552.13314508 -256.0980202 554.74195206 -299.625 541.625 C-304.45180644 539.93693655 -309.02555303 537.85566272 -313.625 535.625 C-315.28611751 534.94462447 -316.95108821 534.27326039 -318.625 533.625 C-318.625 532.965 -318.625 532.305 -318.625 531.625 C-319.945 531.625 -321.265 531.625 -322.625 531.625 C-322.625 530.965 -322.625 530.305 -322.625 529.625 C-323.16640625 529.52316406 -323.7078125 529.42132812 -324.265625 529.31640625 C-327.23096581 528.44742393 -329.68024946 527.07027709 -332.375 525.5625 C-333.35984375 525.01464844 -334.3446875 524.46679688 -335.359375 523.90234375 C-336.48085938 523.27005859 -336.48085938 523.27005859 -337.625 522.625 C-337.625 521.965 -337.625 521.305 -337.625 520.625 C-338.945 520.295 -340.265 519.965 -341.625 519.625 C-341.625 518.965 -341.625 518.305 -341.625 517.625 C-342.615 517.625 -343.605 517.625 -344.625 517.625 C-344.625 516.965 -344.625 516.305 -344.625 515.625 C-345.945 515.295 -347.265 514.965 -348.625 514.625 C-348.625 513.965 -348.625 513.305 -348.625 512.625 C-349.181875 512.38523437 -349.73875 512.14546875 -350.3125 511.8984375 C-353.13476041 510.34428734 -355.25208607 508.4275826 -357.625 506.25 C-358.470625 505.47914063 -359.31625 504.70828125 -360.1875 503.9140625 C-360.991875 503.15867187 -361.79625 502.40328125 -362.625 501.625 C-363.388125 500.91085937 -364.15125 500.19671875 -364.9375 499.4609375 C-366.625 497.625 -366.625 497.625 -366.625 495.625 C-367.615 495.295 -368.605 494.965 -369.625 494.625 C-371.00024414 493.18896484 -371.00024414 493.18896484 -372.41015625 491.3359375 C-372.93577148 490.64975342 -373.46138672 489.96356934 -374.00292969 489.2565918 C-374.55883789 488.5119165 -375.11474609 487.76724121 -375.6875 487 C-376.26532227 486.23018799 -376.84314453 485.46037598 -377.43847656 484.66723633 C-379.18018769 482.32900597 -380.90528333 479.9794402 -382.625 477.625 C-383.0998584 476.98127441 -383.5747168 476.33754883 -384.06396484 475.67431641 C-395.0347593 460.65376393 -403.98833751 442.20868344 -407.23046875 423.81640625 C-407.58729943 421.67066423 -407.58729943 421.67066423 -408.109375 419.77734375 C-415.20934208 390.14035994 -409.82976393 356.38588653 -397.125 329.0625 C-395.79412184 326.19172756 -394.49593357 323.32027008 -393.26171875 320.40625 C-391.28715503 315.77089526 -389.10561614 311.23466543 -386.9375 306.6875 C-386.31391602 305.37555664 -386.31391602 305.37555664 -385.67773438 304.03710938 C-384.66133865 301.89917354 -383.6437358 299.76182151 -382.625 297.625 C-381.965 297.625 -381.305 297.625 -380.625 297.625 C-380.52058594 297.0784375 -380.41617188 296.531875 -380.30859375 295.96875 C-379.46907207 293.09038994 -378.15547453 290.73792287 -376.6875 288.125 C-374.93271629 284.98622225 -373.20282132 281.8568659 -371.625 278.625 C-370.965 278.625 -370.305 278.625 -369.625 278.625 C-369.315625 277.84125 -369.00625 277.0575 -368.6875 276.25 C-367.625 273.625 -367.625 273.625 -366.625 271.625 C-365.965 271.625 -365.305 271.625 -364.625 271.625 C-363.54974806 268.97271188 -362.53043849 266.34131546 -361.625 263.625 C-360.965 263.625 -360.305 263.625 -359.625 263.625 C-359.356875 262.89925781 -359.08875 262.17351562 -358.8125 261.42578125 C-357.63829619 258.65635976 -356.2855676 256.31580566 -354.625 253.8125 C-354.109375 253.02230469 -353.59375 252.23210937 -353.0625 251.41796875 C-352.3509375 250.53044922 -352.3509375 250.53044922 -351.625 249.625 C-350.965 249.625 -350.305 249.625 -349.625 249.625 C-349.315625 248.67625 -349.00625 247.7275 -348.6875 246.75 C-347.625 243.625 -347.625 243.625 -346.625 241.625 C-345.965 241.625 -345.305 241.625 -344.625 241.625 C-344.50769531 241.068125 -344.39039063 240.51125 -344.26953125 239.9375 C-343.54198949 237.32716836 -342.48639375 235.0672805 -341.3125 232.625 C-337.81904883 225.04066688 -334.63788319 217.30228717 -333.89453125 208.91796875 C-333.44828311 205.12162592 -332.61418694 201.4013764 -331.84692383 197.65893555 C-330.92647026 193.15656189 -330.07212416 188.6466829 -329.25 184.125 C-324.99828047 161.34813154 -320.16071858 138.22938089 -311.625 116.625 C-310.965 116.625 -310.305 116.625 -309.625 116.625 C-309.295 114.315 -308.965 112.005 -308.625 109.625 C-307.965 109.625 -307.305 109.625 -306.625 109.625 C-306.54507813 108.96886719 -306.46515625 108.31273437 -306.3828125 107.63671875 C-305.35488958 103.55151995 -303.49313279 100.13099362 -301.5 96.4375 C-301.09330078 95.67937012 -300.68660156 94.92124023 -300.26757812 94.14013672 C-297.10183405 88.32674719 -293.68616839 82.86153894 -289.625 77.625 C-288.91472656 76.70074219 -288.20445312 75.77648437 -287.47265625 74.82421875 C-282.95024034 69.11128652 -278.29238864 64.18862756 -272.625 59.625 C-271.85414063 58.96757813 -271.08328125 58.31015625 -270.2890625 57.6328125 C-264.44966906 52.75130063 -258.44433439 48.98933927 -251.625 45.625 C-250.88636719 45.25632812 -250.14773438 44.88765625 -249.38671875 44.5078125 C-230.04532325 35.38517989 -208.11775257 33.09287915 -187 32.125 C-159.36270032 30.85211846 -134.9277354 22.96686101 -109.98828125 11.40234375 C-105.42775376 9.30911735 -100.90416596 7.70820552 -96.07421875 6.33984375 C-93.82218515 5.68255165 -91.6424224 4.9234053 -89.4375 4.125 C-83.65301051 2.16606827 -77.66366649 1.13283494 -71.67016602 0.01855469 C-70.20933148 -0.26255612 -68.75173211 -0.56069647 -67.29663086 -0.87011719 C-61.23489003 -2.14978493 -55.23072663 -2.94708035 -49.0625 -3.5 C-48.18142578 -3.58636719 -47.30035156 -3.67273438 -46.39257812 -3.76171875 C-30.69663723 -5.2212675 -15.29351347 -3.77985322 0 0 Z " fill="#AD49E1" transform="translate(1203.625,693.375)"/>
<path d="M0 0 C0.88249924 -0.00988449 1.76499847 -0.01976898 2.67424011 -0.029953 C47.66652024 -0.43003686 90.05507935 8.72562559 124.71875 39.23828125 C125.97751953 40.33269531 125.97751953 40.33269531 127.26171875 41.44921875 C150.96195541 62.39361394 168.14044453 87.32733386 175.71875 118.23828125 C176.03972656 119.49640625 176.36070312 120.75453125 176.69140625 122.05078125 C182.13807198 146.3832673 179.65856099 174.09968997 174.71875 198.23828125 C174.52571289 199.24842285 174.33267578 200.25856445 174.13378906 201.29931641 C170.55751349 219.8413363 164.46379154 237.38033313 158.16992188 255.12939453 C156.09053405 261.00162551 154.08061063 266.89667101 152.09375 272.80078125 C151.61639404 274.18934326 151.61639404 274.18934326 151.12939453 275.60595703 C147.72948992 285.70837034 146.38103249 294.95012167 146.46875 305.61328125 C146.47261719 306.79462646 146.47648438 307.97597168 146.48046875 309.19311523 C146.55742209 317.26947474 147.03926512 325.25575165 147.71875 333.30078125 C151.75764176 382.79588742 151.63918735 440.05965516 118.30078125 480.22265625 C115.24508956 483.79148225 112.27510744 487.16558842 108.71875 490.23828125 C107.44257812 491.35203125 107.44257812 491.35203125 106.140625 492.48828125 C88.96706958 506.57940364 68.34662627 514.28866718 47.40234375 520.93359375 C24.82189805 528.13075725 6.12637054 538.35571176 -12.50415039 552.95288086 C-24.24091263 562.14723279 -36.03655606 570.34646392 -49.28125 577.23828125 C-50.00940918 577.61871582 -50.73756836 577.99915039 -51.48779297 578.39111328 C-63.97371392 584.82439968 -76.73853835 589.53830276 -90.28125 593.23828125 C-91.0964209 593.46418945 -91.9115918 593.69009766 -92.75146484 593.92285156 C-126.19152203 602.83563651 -161.66105837 596.20215971 -192.28125 581.23828125 C-193.00070801 580.88813965 -193.72016602 580.53799805 -194.46142578 580.17724609 C-214.67982742 570.20993646 -233.18595922 557.60333531 -251.28125 544.23828125 C-274.51046176 527.17340537 -296.72670711 513.01664925 -323.47949219 502.23583984 C-347.49397617 492.53080169 -367.58267995 479.76414542 -379.15625 455.67578125 C-383.30752979 445.55649028 -384.81717182 435.89157365 -384.71875 424.98828125 C-384.70972656 423.76592773 -384.70070313 422.54357422 -384.69140625 421.28417969 C-384.467689 409.30598536 -382.85897904 397.92036714 -380.28125 386.23828125 C-380.0234375 385.06410645 -379.765625 383.88993164 -379.5 382.68017578 C-375.45925074 364.71895177 -370.26152838 347.24427353 -364.31835938 329.82348633 C-364.06601532 329.07414322 -363.81367126 328.32480011 -363.55368042 327.55274963 C-363.08823282 326.17307355 -362.61554069 324.79580354 -362.13308716 323.42198181 C-358.65565079 313.0849125 -357.97067676 302.54011919 -357.76052856 291.70880699 C-357.71745452 289.49594667 -357.66350549 287.28355971 -357.60717773 285.07099915 C-357.4890898 280.35612445 -357.38452503 275.64100008 -357.28125 270.92578125 C-355.29325544 180.97950277 -355.29325544 180.97950277 -332.71484375 157.44921875 C-312.83555684 139.388743 -282.49462776 135.97181823 -257.09375 131.67578125 C-192.72248419 120.73555926 -136.83854995 91.52803266 -88.71875 47.46484375 C-85.28809328 44.33107079 -81.7996117 41.27286821 -78.28125 38.23828125 C-77.37375 37.44035156 -76.46625 36.64242187 -75.53125 35.8203125 C-53.5130339 16.63905886 -30.17988727 0.27543764 0 0 Z " fill="#EBD3F8" transform="translate(624.28125,511.76171875)"/>
<path d="M0 0 C0.88249924 -0.00988449 1.76499847 -0.01976898 2.67424011 -0.029953 C47.66652024 -0.43003686 90.05507935 8.72562559 124.71875 39.23828125 C125.97751953 40.33269531 125.97751953 40.33269531 127.26171875 41.44921875 C150.96195541 62.39361394 168.14044453 87.32733386 175.71875 118.23828125 C176.03972656 119.49640625 176.36070312 120.75453125 176.69140625 122.05078125 C182.13807198 146.3832673 179.65856099 174.09968997 174.71875 198.23828125 C174.52571289 199.24842285 174.33267578 200.25856445 174.13378906 201.29931641 C170.55751349 219.8413363 164.46379154 237.38033313 158.16992188 255.12939453 C156.09053405 261.00162551 154.08061063 266.89667101 152.09375 272.80078125 C151.61639404 274.18934326 151.61639404 274.18934326 151.12939453 275.60595703 C147.72948992 285.70837034 146.38103249 294.95012167 146.46875 305.61328125 C146.47261719 306.79462646 146.47648438 307.97597168 146.48046875 309.19311523 C146.55742209 317.26947474 147.03926512 325.25575165 147.71875 333.30078125 C151.75764176 382.79588742 151.63918735 440.05965516 118.30078125 480.22265625 C115.24508956 483.79148225 112.27510744 487.16558842 108.71875 490.23828125 C107.44257812 491.35203125 107.44257812 491.35203125 106.140625 492.48828125 C88.96706958 506.57940364 68.34662627 514.28866718 47.40234375 520.93359375 C24.82189805 528.13075725 6.12637054 538.35571176 -12.50415039 552.95288086 C-24.24091263 562.14723279 -36.03655606 570.34646392 -49.28125 577.23828125 C-50.00940918 577.61871582 -50.73756836 577.99915039 -51.48779297 578.39111328 C-63.97371392 584.82439968 -76.73853835 589.53830276 -90.28125 593.23828125 C-91.0964209 593.46418945 -91.9115918 593.69009766 -92.75146484 593.92285156 C-126.19152203 602.83563651 -161.66105837 596.20215971 -192.28125 581.23828125 C-193.00070801 580.88813965 -193.72016602 580.53799805 -194.46142578 580.17724609 C-214.67982742 570.20993646 -233.18595922 557.60333531 -251.28125 544.23828125 C-274.51046176 527.17340537 -296.72670711 513.01664925 -323.47949219 502.23583984 C-347.49397617 492.53080169 -367.58267995 479.76414542 -379.15625 455.67578125 C-383.30752979 445.55649028 -384.81717182 435.89157365 -384.71875 424.98828125 C-384.70972656 423.76592773 -384.70070313 422.54357422 -384.69140625 421.28417969 C-384.467689 409.30598536 -382.85897904 397.92036714 -380.28125 386.23828125 C-380.0234375 385.06410645 -379.765625 383.88993164 -379.5 382.68017578 C-375.45925074 364.71895177 -370.26152838 347.24427353 -364.31835938 329.82348633 C-364.06601532 329.07414322 -363.81367126 328.32480011 -363.55368042 327.55274963 C-363.08823282 326.17307355 -362.61554069 324.79580354 -362.13308716 323.42198181 C-358.65565079 313.0849125 -357.97067676 302.54011919 -357.76052856 291.70880699 C-357.71745452 289.49594667 -357.66350549 287.28355971 -357.60717773 285.07099915 C-357.4890898 280.35612445 -357.38452503 275.64100008 -357.28125 270.92578125 C-355.29325544 180.97950277 -355.29325544 180.97950277 -332.71484375 157.44921875 C-312.83555684 139.388743 -282.49462776 135.97181823 -257.09375 131.67578125 C-192.72248419 120.73555926 -136.83854995 91.52803266 -88.71875 47.46484375 C-85.28809328 44.33107079 -81.7996117 41.27286821 -78.28125 38.23828125 C-77.37375 37.44035156 -76.46625 36.64242187 -75.53125 35.8203125 C-53.5130339 16.63905886 -30.17988727 0.27543764 0 0 Z " fill="#7A1CAC" transform="translate(384.28125,-0.23828125)"/>
</svg>
